<?xml version="1.0" encoding="UTF-8"?>
<svg width="2007px" height="621px" viewBox="0 0 2007 621" version="1.1" xmlns="http://www.w3.org/2000/svg" xmlns:xlink="http://www.w3.org/1999/xlink">
    <title>shy-boyz</title>
    <defs>
        <polygon id="path-1" points="0.267626036 0.578714798 1077.587 0.578714798 1077.587 602.33252 0.267626036 602.33252"></polygon>
        <polygon id="path-3" points="6.96348195e-05 0.649509896 965.838953 0.649509896 965.838953 621 6.96348195e-05 621"></polygon>
    </defs>
    <g id="shy-boyz" stroke="none" stroke-width="1" fill="none" fill-rule="evenodd">
        <g id="Group-7" transform="translate(0.000000, -1.000000)">
            <g id="Group-3" transform="translate(929.000000, 5.351000)">
                <mask id="mask-2" fill="white">
                    <use xlink:href="#path-1"></use>
                </mask>
                <g id="Clip-2"></g>
                <path d="M153.3936,143.051 C153.3936,161.38 153.3746,177.051 153.3986,195.38 C153.4076,202.265 156.0126,207.146 162.7626,207.751 C179.5446,209.253 193.9476,208.793 209.1916,201.312 C225.4996,192.824 241.4996,153.824 230.7326,111.672 C226.1086,100.87 222.7166,89.546 204.9906,82.551 C189.2166,78.046 177.9696,79.578 162.7626,79.938 C158.1876,80.046 153.4056,85.206 153.4966,90.341 C153.8206,108.663 153.4136,143.051 153.3936,143.051 L153.3936,143.051 Z M422.3326,284.157 C431.3166,300.138 459.1656,338.491 470.7496,350.96 C485.1656,366.491 515.9996,393.491 532.4856,392.625 C547.7466,391.823 564.8326,384.157 565.000048,358.157 C565.1476,335.145 528.5876,292.921 523.6806,287.487 C505.5546,267.415 486.4626,248.522 461.8746,236.212 C432.8326,225.324 408.3326,256.99 422.3326,284.157 L422.3326,284.157 Z M153.4476,412.503 C153.4476,435.149 153.9616,480.159 153.9616,489.723 C153.9616,497.158 155.8836,501.38 162.7626,501.38 C173.1546,501.989 205.8326,502.657 226.5506,485.046 C240.2166,472.38 247.6136,450.1 248.7256,430.171 C249.9696,407.88 250.1556,387.733 245.5506,366.046 C240.4996,343.824 227.4996,332.824 212.8386,328.262 C196.3146,323.121 180.1736,321.584 163.7116,324.778 C153.1676,326.824 153.6406,342.995 153.5836,347.714 C153.3106,370.358 153.4636,412.503 153.4476,412.503 L153.4476,412.503 Z M127.1456,0.719 C159.8106,0.719 192.4806,0.39 225.1366,0.932 C234.1536,1.082 243.1176,3.894 252.1226,5.369 C282.0136,10.269 306.8566,25.075 328.0376,45.844 C341.8226,59.361 351.5736,75.931 357.2186,94.68 C364.3336,118.306 367.2676,142.143 362.7056,166.714 C360.2896,179.731 355.2396,191.663 348.8876,202.984 C334.5816,228.477 317.2776,247.36 290.2976,259.607 C289.1986,260.106 285.9246,262.294 284.9606,263.091 C285.9066,263.663 291.3196,265.884 292.3456,266.157 C306.7966,269.999 314.3306,277.032 326.7516,284.813 C339.2556,292.647 350.5666,301.831 360.0986,313.149 C360.8726,314.067 362.1556,314.557 363.2026,315.245 C363.4776,314.009 363.9916,312.77 363.9926,311.534 C364.0056,292.577 368.5096,274.815 376.1136,257.391 C393.7796,216.902 425.8606,195.388 467.4506,185.838 C506.2426,176.931 545.8836,189.677 578.6626,210.34 C578.8756,209.017 578.9376,205.114 579.5826,202.657 C581.1026,198.049 582.2496,194.157 590.4156,192.49 C592.2026,192.126 595.6146,191.834 597.7216,191.83 C628.8856,191.773 660.0506,191.809 691.2146,191.792 C695.3536,191.79 699.6226,190.917 703.6086,191.651 C719.1986,194.523 726.7736,211.294 719.0616,225.28 C716.4076,230.094 713.8256,234.973 710.7936,239.548 C707.6836,244.239 707.6226,248.821 709.8736,253.735 C717.1586,269.634 724.2766,285.61 731.7156,301.436 C739.4356,317.856 747.4376,334.145 755.3766,350.464 C756.0536,351.854 757.1856,353.022 758.1056,354.296 C758.7376,353.007 759.5436,351.772 759.9736,350.419 C767.8816,325.509 775.7896,300.598 783.5776,275.651 C785.1126,270.733 786.3266,265.696 787.3816,260.651 C789.3506,251.239 785.5786,244.048 778.1406,238.544 C776.0096,236.968 773.6076,235.743 771.2766,234.454 C761.2966,228.926 757.9816,219.818 758.4036,209.198 C758.8146,198.854 768.5056,190.69 779.5726,190.697 C813.9026,190.72 848.2326,190.869 882.5626,190.777 C899.5476,190.731 916.5316,190.1 933.5176,190.012 C970.3096,189.822 1007.1026,189.828 1043.8956,189.719 C1062.6146,189.663 1075.6776,199.153 1077.4726,217.492 C1078.2566,225.505 1074.9246,235.454 1070.1446,242.157 C1060.0466,256.319 1048.0936,269.223 1036.3016,282.094 C1018.3066,301.739 999.7496,320.868 981.5426,340.319 C974.9436,347.368 976.7006,345.572 970.2896,352.797 C969.4056,353.792 964.0066,359.909 959.8216,365.094 C958.5296,368.223 954.8836,371.046 956.3686,374.655 C959.0496,377.38 962.4716,376.514 965.5636,376.678 C986.1776,375.779 1006.0226,373.077 1023.8366,361.087 C1029.7906,357.079 1037.5526,354.55 1044.7366,353.839 C1057.6946,352.553 1066.4586,363.969 1062.7716,376.518 C1060.8676,382.997 1058.1646,389.509 1054.5036,395.151 C1045.2606,409.397 1035.5376,423.354 1025.4966,437.053 C1017.2516,448.3 1004.9886,452.792 993.4266,447.454 C979.7566,441.145 965.6056,441.577 951.3626,441.301 C921.5496,440.729 891.7316,440.45 861.9206,439.792 C857.3286,439.69 852.5906,438.747 848.2236,437.284 C838.1836,433.921 832.5926,426.368 828.8186,416.612 C823.1906,402.061 828.5216,390.184 836.9116,379.079 C841.3006,373.268 846.9956,368.462 851.8486,362.979 C866.7396,346.155 881.3586,329.091 896.3696,312.376 C909.9346,297.272 923.8826,282.51 937.6396,267.579 C938.6496,266.481 939.6066,265.292 940.3576,264.01 C942.8026,259.841 941.9026,257.614 937.1546,256.313 C935.2466,255.79 933.2136,255.432 931.2466,255.462 C921.5876,255.608 911.9296,256.173 902.2766,256.096 C885.3866,255.964 874.1506,264.641 865.8946,278.442 C854.1226,298.122 845.7066,319.198 838.4106,340.907 C824.6696,381.792 810.4776,422.534 795.7786,463.083 C789.4866,480.44 782.1236,497.495 774.0456,514.102 C763.7856,535.196 750.7576,554.448 732.7166,569.546 C717.6136,582.186 699.8866,591.95 680.7616,597.374 C634.9996,609.824 594.9996,596.824 571.6276,580.522 C554.3246,566.309 544.4996,548.824 540.7476,525.731 C538.9276,492.046 548.7166,470.046 584.2066,454.952 C597.9766,449.096 618.0036,448.991 631.2166,456.046 C648.3266,465.182 658.9486,480.922 656.1626,501.118 C655.0396,509.258 653.5306,513.941 651.0136,521.575 C650.6646,522.634 650.2376,523.675 649.8426,524.723 C650.9476,524.733 655.0746,523.982 656.0236,523.601 C666.6656,520.657 672.1636,518.9 680.2356,513.438 C687.1766,508.742 696.5896,499.001 700.5706,488.376 C701.9136,484.788 703.2716,481.202 704.4536,477.561 C707.5646,467.969 707.1526,458.684 704.7896,448.661 C699.1346,424.655 688.2216,403.053 677.1006,381.419 C668.8756,365.419 661.3126,349.055 652.5036,333.389 C645.3386,320.645 637.4766,310.776 629.4996,298.491 C629.1856,298.007 627.8576,295.637 627.3786,295.259 C627.9996,297.407 628.6656,300.151 628.9156,303.241 C629.5246,312.319 629.4436,314.49 628.9996,322.991 C628.6656,337.074 622.6036,355.495 617.0356,367.454 C603.4366,396.653 582.6106,419.284 553.6656,433.598 C530.8316,444.891 506.2076,446.544 481.0296,445.382 C455.7376,444.214 434.5096,433.698 414.5336,419.509 C412.2616,417.895 410.5766,415.475 408.4976,413.561 C407.6226,412.755 406.4316,412.292 405.3836,411.673 C405.2136,412.766 404.8746,413.864 404.8996,414.954 C405.3986,437.93 401.0906,460.089 392.6416,481.333 C383.0806,505.372 368.2486,526.182 349.7076,543.954 C320.4846,571.966 285.0416,587.251 244.7446,589.727 C223.7216,591.018 202.5376,589.616 181.4256,589.555 C140.1066,589.434 98.7866,589.481 57.4666,589.282 C46.1556,589.227 34.8496,588.344 23.5376,588.2 C10.7166,588.546 0.9946,575.225 0.3026,564.046 C-0.1794,556.259 4.2166,540.546 19.9786,533.452 C25.4666,531.499 31.1136,529.973 36.5336,527.858 C46.7386,523.872 52.3246,516.081 54.2116,505.423 C57.0786,489.249 57.0386,473.063 56.1046,456.661 C54.8846,435.233 54.9966,413.714 54.9726,392.233 C54.8826,312.905 55.0376,233.577 54.9516,154.249 C54.9296,134.425 54.7836,114.581 53.8556,94.786 C53.3286,83.516 50.6106,72.369 40.4516,65.383 C35.8686,62.231 30.5186,60.055 25.2966,57.993 C12.9566,53.118 4.2516,45.352 2.5376,31.447 C1.5346,23.316 3.7616,16.957 7.9656,10.224 C14.4866,1.837 26.2846,0.888 33.7056,0.735 C52.3486,0.35 64.9966,0.794 83.6476,0.822 C98.1466,0.844 112.6466,0.826 127.1456,0.826 L127.1456,0.719 Z" id="Fill-1" fill="#000000" mask="url(#mask-2)"></path>
            </g>
            <g id="Group-6" transform="translate(0.000000, 0.351000)">
                <mask id="mask-4" fill="white">
                    <use xlink:href="#path-3"></use>
                </mask>
                <g id="Clip-5"></g>
                <path d="M156.0337,263.9539 C142.6197,239.1259 131.3857,213.2629 123.5997,186.1129 C113.0997,149.4959 115.2967,113.3999 134.1057,80.0509 C147.7867,55.7929 166.4567,35.7839 191.9847,22.2439 C223.1297,5.7229 255.6177,1.3309 289.7777,6.7709 C296.8207,7.8919 303.6337,11.4519 310.1117,14.7519 C314.1047,16.7859 316.0987,16.1569 318.9237,13.0419 C325.0567,6.2839 333.1087,2.3119 341.9807,0.9849 C350.6867,-0.3171 358.5877,2.0649 363.7817,10.0099 C372.7167,17.5459 374.6637,29.0829 374.6927,40.5309 C374.7327,56.1819 374.7017,71.8329 374.7017,87.4849 C374.9207,87.4859 375.1397,87.4859 375.3587,87.4869 C375.3587,106.6379 375.3277,125.7889 375.4147,144.9409 C375.4217,146.4679 376.2367,147.9929 376.6757,149.5179 C377.9307,148.8179 379.2897,148.2549 380.4247,147.3969 C400.8707,131.9119 419.7707,114.1339 441.7697,100.9539 C455.7147,92.5979 469.2777,81.9959 493.1367,83.7349 C500.5617,84.2759 508.3147,91.4679 509.7117,97.0889 C511.1207,113.6229 511.0177,130.3109 511.0167,146.9329 C511.0167,170.4029 510.5117,193.8719 510.2507,217.3419 C510.2047,221.4119 511.9627,220.1879 514.1187,218.7079 C528.6157,208.7589 543.5947,199.6839 561.2527,196.5859 C586.8167,192.1009 610.3597,195.9419 630.0907,214.3289 C630.8227,215.0089 631.6217,215.6169 632.3467,216.3039 C634.5117,218.3569 636.0497,218.2889 636.8917,215.1209 C638.5787,208.7619 641.7127,203.3399 647.7837,200.2939 C650.7367,198.8129 654.0057,197.0239 657.1457,196.9989 C688.4747,196.7549 719.8067,196.8599 751.1377,196.8379 C754.9507,196.8359 758.8767,196.0389 762.5557,196.6989 C778.3877,199.5369 785.7207,215.9819 777.9017,230.7839 C775.6477,235.0519 773.1107,239.1859 770.4487,243.2139 C766.7907,248.7449 766.5297,254.1649 769.4507,260.1829 C780.4387,282.8079 791.2677,305.5129 802.0487,328.2369 C806.3297,337.2629 810.3047,346.4329 814.4887,355.5049 C815.0887,356.8089 816.1557,359.8409 816.9667,361.0459 C817.6207,359.7879 818.3977,356.6839 818.8267,355.3519 C825.2627,335.3879 831.7487,315.4379 837.9897,295.4129 C841.0097,285.7239 843.8947,275.9639 846.1987,266.0849 C848.4947,256.2429 844.4687,248.0499 835.8087,242.7699 C832.6847,240.8659 829.4897,239.0239 826.5997,236.7999 C819.1467,231.0579 816.3707,222.3839 819.1877,213.1159 C821.7807,204.5869 827.8457,199.5519 836.6557,198.9369 C847.7527,198.1619 858.9057,197.9889 870.0367,197.9059 C893.3677,197.7319 916.7017,197.8009 940.0337,197.7379 C947.3657,197.7179 953.8227,199.9509 959.0767,205.1239 C967.5297,213.4479 968.1187,226.4329 960.5007,235.5219 C959.1157,237.1769 957.5967,238.7629 955.9387,240.1399 C935.6997,256.9459 922.9917,279.0279 913.9007,303.0339 C901.0437,336.9849 889.6827,371.4989 877.2927,405.6319 C866.5537,435.2179 855.7317,464.7899 844.0317,494.0029 C838.4917,507.8329 831.0717,520.9419 824.0427,534.1339 C816.9587,547.4289 805.8797,559.9229 794.7167,569.7959 C781.5767,581.4169 768.7287,590.7759 752.3697,597.7079 C733.1717,605.8429 715.2167,611.5459 695.7397,610.2549 C691.1577,609.8819 678.7727,607.6609 675.0127,606.4399 C658.5697,601.1019 644.9667,597.0459 633.0127,587.5849 C614.0907,573.2059 601.9877,553.9599 599.7317,530.9659 C596.6507,499.5649 612.4857,469.3929 644.8187,459.4499 C679.4507,448.7999 714.3107,470.0879 715.2667,503.1569 C715.5097,511.5499 714.7897,517.4379 711.2187,524.5849 C710.7287,525.5629 709.8187,528.0819 708.8747,529.3239 C709.9677,529.4429 717.1347,527.3909 720.9997,526.3239 C732.5897,522.1109 745.2497,517.6989 753.9667,503.8469 C762.9297,488.2799 769.2247,472.1339 763.7127,453.0479 C757.5197,431.5999 749.0337,411.3189 738.7067,391.6409 C730.6567,376.3019 723.7297,360.3349 715.0767,345.3539 C704.5097,327.0579 692.7997,309.4129 681.3077,291.6649 C675.8947,283.3059 669.8697,275.3409 664.0427,267.2549 C662.9277,265.7059 660.0307,263.1999 658.7167,261.7959 C658.4817,263.8519 659.3997,267.1379 659.4647,269.1839 C660.0727,288.1469 660.9887,307.1039 661.3877,326.0709 C661.7287,342.2309 661.7857,358.4089 661.4147,374.5649 C661.2367,382.3619 665.0927,386.8469 671.1147,390.6059 C676.8597,394.1919 683.3527,397.2549 687.7837,402.1239 C695.0447,410.1059 696.8657,420.1959 693.0397,430.5969 C689.9207,439.0769 683.8807,443.4249 674.3967,443.5439 C643.9197,443.9269 613.4517,444.8909 582.9747,445.2409 C572.8857,445.3559 562.7467,445.3759 553.0057,441.2839 C535.5827,433.9679 531.6897,414.2629 545.2687,401.0129 C550.4837,395.9249 555.8547,390.8639 560.2067,385.0789 C562.5077,382.0199 563.7477,377.4459 563.7987,373.5319 C564.0967,350.8719 564.4967,328.1809 563.6517,305.5459 C563.1137,291.1649 558.0107,278.2549 544.8747,269.9329 C540.2187,268.0389 527.9707,268.1009 523.5877,270.8169 C508.4667,280.0459 505.7717,293.2799 505.4957,308.3369 C505.1087,329.4949 505.1077,350.6769 505.7677,371.8229 C505.9197,376.7039 508.5777,382.1099 511.5917,386.1489 C515.7287,391.6899 521.1287,396.3519 526.2997,401.0459 C537.0787,410.8309 537.2617,427.5789 526.3687,437.2569 C521.0107,442.0159 515.3937,444.3579 507.4487,443.8019 C493.7167,442.8389 479.8287,444.2219 466.0047,444.4539 C446.8537,444.7719 427.7007,444.9519 408.5467,445.1509 C404.5567,445.1919 400.4657,445.6019 396.5907,444.9049 C379.7757,441.8819 372.5867,425.2629 381.7737,409.2939 C385.2467,403.2569 390.5507,397.9889 395.8887,393.3759 C404.0847,386.2919 409.2977,378.8349 409.1917,367.0889 C408.7157,314.6199 409.0137,262.1429 409.0487,209.6709 C409.0507,207.3429 409.1317,205.0059 409.3377,202.6879 C409.9757,195.5149 406.5307,191.3319 399.3887,190.4389 C392.9697,189.6359 386.5317,188.8629 380.1867,187.6379 C376.2447,186.8779 376.7997,189.2259 376.4277,191.5879 C375.1947,199.4129 374.7507,207.5519 372.1897,214.9419 C363.7167,231.0459 346.2167,231.0459 337.0637,225.1879 C328.2807,220.2489 322.8077,211.8759 319.0037,202.5329 C311.8997,185.0839 308.8167,166.6439 306.0947,148.1959 C303.4007,129.9299 297.4497,112.9639 288.0347,97.1919 C280.9257,85.2819 266.0527,78.8119 252.8987,82.0409 C247.7237,84.2039 240.4837,89.4499 237.8277,93.3959 C228.6847,110.6569 227.7057,128.4399 233.0267,147.1509 C241.9337,178.4709 259.9217,204.5579 279.5687,229.6999 C297.2997,252.3899 315.7567,274.5149 333.3477,297.3089 C352.3257,321.9029 362.5397,350.5889 370.4767,380.2469 C374.3877,394.8619 376.4947,409.7249 375.6327,424.7549 C374.4797,444.8759 371.7697,464.8109 366.0147,484.2719 C352.0257,531.5869 322.3917,565.8929 280.4627,591.1339 C251.4437,608.5999 220.0167,616.8739 186.9967,620.7549 C170.7077,621.4029 157.3697,620.9129 142.8357,617.4929 C127.1367,613.7999 114.6627,610.5929 96.7507,603.1199 C88.9367,598.7269 80.9927,594.4519 73.6727,589.3169 C57.6817,578.1019 42.5757,565.6469 30.6237,550.1039 C9.4307,522.5439 -2.1263,491.8449 0.3247,456.2819 C2.6897,421.9719 16.1107,393.4439 39.8977,368.7649 C62.0357,345.7939 88.7527,333.9479 120.0337,334.0989 C138.7547,334.1899 156.4807,339.6509 173.2167,349.9029 C190.1517,360.2799 202.9417,373.9809 213.8337,389.7139 C227.7897,409.8679 232.3057,432.4559 228.0157,456.8019 C225.1317,473.1709 219.0557,488.2099 209.8387,501.8779 C200.4227,515.8409 187.7047,525.6449 172.2167,531.0459 C157.5827,534.2159 144.1347,535.2349 128.9037,532.9479 C112.0467,527.8189 98.0977,521.2139 87.2517,510.1629 C78.6917,497.2309 72.2167,491.0459 71.7797,462.6829 C71.5147,445.4849 79.6607,430.4659 91.4157,417.7659 C92.1527,416.9699 92.6927,415.9909 93.3257,415.0969 C92.2077,415.1159 91.0497,414.9499 89.9787,415.1829 C81.7867,416.9659 74.2757,423.5989 70.7627,428.3899 C61.0697,445.3929 55.2327,463.4559 58.3057,483.3369 C61.1087,501.4769 69.7887,516.3759 83.6887,528.4459 C109.7827,551.1059 141.0387,556.6569 173.9087,554.3949 C192.6727,553.1039 208.3527,543.1729 220.4927,528.7239 C232.0077,515.0199 240.6647,499.6119 243.3397,481.6299 C245.7857,465.1899 244.4267,449.0379 240.8737,432.5999 C234.7087,404.0709 218.6597,380.3129 206.1687,354.8329" id="Fill-4" fill="#000000" mask="url(#mask-4)"></path>
            </g>
        </g>
    </g>
</svg>